<mxfile host="app.diagrams.net" modified="2024-02-02T08:19:55.913Z" agent="Mozilla/5.0 (Windows NT 10.0; Win64; x64) AppleWebKit/537.36 (KHTML, like Gecko) Chrome/121.0.0.0 Safari/537.36" etag="-sWUTDBSfTqLadeV5DCM" version="23.0.2" type="github">
  <diagram id="07fea595-8f29-1299-0266-81d95cde20df" name="Page-1">
    <mxGraphModel dx="1235" dy="680" grid="1" gridSize="10" guides="1" tooltips="1" connect="1" arrows="1" fold="1" page="1" pageScale="1" pageWidth="1169" pageHeight="827" background="#ffffff" math="0" shadow="0">
      <root>
        <mxCell id="0" />
        <mxCell id="1" parent="0" />
        <mxCell id="9Bxwy5i8UHHY-k7EtiTk-217" value="POI lifecyle" style="swimlane;childLayout=stackLayout;resizeParent=1;resizeParentMax=0;horizontal=1;startSize=20;horizontalStack=0;html=1;" parent="1" vertex="1">
          <mxGeometry x="55" y="130" width="1060" height="586" as="geometry" />
        </mxCell>
        <mxCell id="9Bxwy5i8UHHY-k7EtiTk-218" value="Beefree App" style="swimlane;startSize=20;horizontal=0;html=1;" parent="9Bxwy5i8UHHY-k7EtiTk-217" vertex="1">
          <mxGeometry y="20" width="1060" height="150" as="geometry" />
        </mxCell>
        <mxCell id="PiLXQEKosG3rtWcj75W_-7" style="edgeStyle=orthogonalEdgeStyle;rounded=1;orthogonalLoop=1;jettySize=auto;html=1;curved=0;" edge="1" parent="9Bxwy5i8UHHY-k7EtiTk-218" source="PiLXQEKosG3rtWcj75W_-1" target="PiLXQEKosG3rtWcj75W_-4">
          <mxGeometry relative="1" as="geometry" />
        </mxCell>
        <mxCell id="PiLXQEKosG3rtWcj75W_-17" style="edgeStyle=orthogonalEdgeStyle;rounded=1;orthogonalLoop=1;jettySize=auto;html=1;entryX=0.5;entryY=0;entryDx=0;entryDy=0;curved=0;dashed=1;" edge="1" parent="9Bxwy5i8UHHY-k7EtiTk-218" source="PiLXQEKosG3rtWcj75W_-1" target="PiLXQEKosG3rtWcj75W_-16">
          <mxGeometry relative="1" as="geometry">
            <Array as="points">
              <mxPoint x="155" y="10" />
              <mxPoint x="915" y="10" />
            </Array>
          </mxGeometry>
        </mxCell>
        <mxCell id="PiLXQEKosG3rtWcj75W_-1" value="reported" style="ellipse;whiteSpace=wrap;html=1;" vertex="1" parent="9Bxwy5i8UHHY-k7EtiTk-218">
          <mxGeometry x="95" y="30" width="120" height="80" as="geometry" />
        </mxCell>
        <mxCell id="PiLXQEKosG3rtWcj75W_-4" value="handled" style="ellipse;whiteSpace=wrap;html=1;fillStyle=solid;" vertex="1" parent="9Bxwy5i8UHHY-k7EtiTk-218">
          <mxGeometry x="465" y="30" width="120" height="80" as="geometry" />
        </mxCell>
        <mxCell id="PiLXQEKosG3rtWcj75W_-16" value="erased" style="ellipse;whiteSpace=wrap;html=1;fillStyle=solid;" vertex="1" parent="9Bxwy5i8UHHY-k7EtiTk-218">
          <mxGeometry x="855" y="50" width="120" height="80" as="geometry" />
        </mxCell>
        <mxCell id="PiLXQEKosG3rtWcj75W_-3" value="" style="edgeStyle=orthogonalEdgeStyle;rounded=1;orthogonalLoop=1;jettySize=auto;html=1;curved=0;" edge="1" parent="9Bxwy5i8UHHY-k7EtiTk-217" source="PiLXQEKosG3rtWcj75W_-1" target="PiLXQEKosG3rtWcj75W_-2">
          <mxGeometry relative="1" as="geometry">
            <Array as="points">
              <mxPoint x="155" y="290" />
            </Array>
          </mxGeometry>
        </mxCell>
        <mxCell id="PiLXQEKosG3rtWcj75W_-6" style="edgeStyle=orthogonalEdgeStyle;rounded=1;orthogonalLoop=1;jettySize=auto;html=1;curved=0;" edge="1" parent="9Bxwy5i8UHHY-k7EtiTk-217" source="PiLXQEKosG3rtWcj75W_-2" target="PiLXQEKosG3rtWcj75W_-4">
          <mxGeometry relative="1" as="geometry">
            <Array as="points">
              <mxPoint x="375" y="180" />
              <mxPoint x="525" y="180" />
            </Array>
          </mxGeometry>
        </mxCell>
        <mxCell id="9Bxwy5i8UHHY-k7EtiTk-219" value="des abeilles &amp;amp; nous backend" style="swimlane;startSize=20;horizontal=0;html=1;strokeColor=default;" parent="9Bxwy5i8UHHY-k7EtiTk-217" vertex="1">
          <mxGeometry y="170" width="1060" height="290" as="geometry" />
        </mxCell>
        <mxCell id="PiLXQEKosG3rtWcj75W_-9" value="" style="edgeStyle=orthogonalEdgeStyle;rounded=1;orthogonalLoop=1;jettySize=auto;html=1;curved=0;" edge="1" parent="9Bxwy5i8UHHY-k7EtiTk-219" source="PiLXQEKosG3rtWcj75W_-2" target="PiLXQEKosG3rtWcj75W_-8">
          <mxGeometry relative="1" as="geometry">
            <Array as="points">
              <mxPoint x="395" y="230" />
            </Array>
          </mxGeometry>
        </mxCell>
        <mxCell id="PiLXQEKosG3rtWcj75W_-11" value="" style="edgeStyle=orthogonalEdgeStyle;rounded=1;orthogonalLoop=1;jettySize=auto;html=1;curved=0;" edge="1" parent="9Bxwy5i8UHHY-k7EtiTk-219" source="PiLXQEKosG3rtWcj75W_-2" target="PiLXQEKosG3rtWcj75W_-10">
          <mxGeometry relative="1" as="geometry">
            <Array as="points" />
          </mxGeometry>
        </mxCell>
        <mxCell id="PiLXQEKosG3rtWcj75W_-2" value="live" style="ellipse;whiteSpace=wrap;html=1;fillStyle=solid;" vertex="1" parent="9Bxwy5i8UHHY-k7EtiTk-219">
          <mxGeometry x="315" y="80" width="120" height="80" as="geometry" />
        </mxCell>
        <mxCell id="PiLXQEKosG3rtWcj75W_-8" value="disbelieved" style="ellipse;whiteSpace=wrap;html=1;fillStyle=solid;" vertex="1" parent="9Bxwy5i8UHHY-k7EtiTk-219">
          <mxGeometry x="715" y="190" width="120" height="80" as="geometry" />
        </mxCell>
        <mxCell id="PiLXQEKosG3rtWcj75W_-19" style="edgeStyle=orthogonalEdgeStyle;rounded=1;orthogonalLoop=1;jettySize=auto;html=1;" edge="1" parent="9Bxwy5i8UHHY-k7EtiTk-219" source="PiLXQEKosG3rtWcj75W_-10" target="PiLXQEKosG3rtWcj75W_-14">
          <mxGeometry relative="1" as="geometry" />
        </mxCell>
        <mxCell id="PiLXQEKosG3rtWcj75W_-10" value="locked" style="ellipse;whiteSpace=wrap;html=1;fillStyle=solid;" vertex="1" parent="9Bxwy5i8UHHY-k7EtiTk-219">
          <mxGeometry x="530" y="80" width="120" height="80" as="geometry" />
        </mxCell>
        <mxCell id="PiLXQEKosG3rtWcj75W_-14" value="archived" style="ellipse;whiteSpace=wrap;html=1;fillStyle=solid;" vertex="1" parent="9Bxwy5i8UHHY-k7EtiTk-219">
          <mxGeometry x="715" y="40" width="120" height="80" as="geometry" />
        </mxCell>
        <mxCell id="9Bxwy5i8UHHY-k7EtiTk-220" value="MNHN" style="swimlane;startSize=20;horizontal=0;html=1;swimlaneLine=1;" parent="9Bxwy5i8UHHY-k7EtiTk-217" vertex="1">
          <mxGeometry y="460" width="1060" height="126" as="geometry" />
        </mxCell>
        <mxCell id="PiLXQEKosG3rtWcj75W_-12" value="imported" style="ellipse;whiteSpace=wrap;html=1;fillStyle=solid;" vertex="1" parent="9Bxwy5i8UHHY-k7EtiTk-220">
          <mxGeometry x="135" y="16" width="120" height="80" as="geometry" />
        </mxCell>
        <mxCell id="PiLXQEKosG3rtWcj75W_-13" style="edgeStyle=orthogonalEdgeStyle;rounded=1;orthogonalLoop=1;jettySize=auto;html=1;curved=0;" edge="1" parent="9Bxwy5i8UHHY-k7EtiTk-217" source="PiLXQEKosG3rtWcj75W_-12" target="PiLXQEKosG3rtWcj75W_-2">
          <mxGeometry relative="1" as="geometry">
            <Array as="points">
              <mxPoint x="355" y="510" />
            </Array>
          </mxGeometry>
        </mxCell>
        <mxCell id="PiLXQEKosG3rtWcj75W_-18" style="edgeStyle=orthogonalEdgeStyle;rounded=1;orthogonalLoop=1;jettySize=auto;html=1;curved=0;" edge="1" parent="9Bxwy5i8UHHY-k7EtiTk-217" source="PiLXQEKosG3rtWcj75W_-8" target="PiLXQEKosG3rtWcj75W_-16">
          <mxGeometry relative="1" as="geometry" />
        </mxCell>
        <mxCell id="PiLXQEKosG3rtWcj75W_-20" style="edgeStyle=orthogonalEdgeStyle;rounded=1;orthogonalLoop=1;jettySize=auto;html=1;entryX=0;entryY=0.5;entryDx=0;entryDy=0;curved=0;" edge="1" parent="9Bxwy5i8UHHY-k7EtiTk-217" source="PiLXQEKosG3rtWcj75W_-2" target="PiLXQEKosG3rtWcj75W_-16">
          <mxGeometry relative="1" as="geometry">
            <Array as="points">
              <mxPoint x="405" y="200" />
              <mxPoint x="625" y="200" />
              <mxPoint x="625" y="110" />
            </Array>
          </mxGeometry>
        </mxCell>
        <mxCell id="PiLXQEKosG3rtWcj75W_-21" style="edgeStyle=orthogonalEdgeStyle;rounded=1;orthogonalLoop=1;jettySize=auto;html=1;curved=0;jumpStyle=arc;jumpSize=12;" edge="1" parent="9Bxwy5i8UHHY-k7EtiTk-217" source="PiLXQEKosG3rtWcj75W_-4" target="PiLXQEKosG3rtWcj75W_-14">
          <mxGeometry relative="1" as="geometry">
            <Array as="points">
              <mxPoint x="775" y="90" />
            </Array>
          </mxGeometry>
        </mxCell>
      </root>
    </mxGraphModel>
  </diagram>
</mxfile>
